<svg width="24" height="24" viewBox="0 0 24 24" fill="none" xmlns="http://www.w3.org/2000/svg">
<path fill-rule="evenodd" clip-rule="evenodd" d="M10.125 1.5C7.83747 1.5 5.64366 2.4087 4.02616 4.0262C2.40866 5.64371 1.49996 7.83751 1.49996 10.125V10.902C1.04394 11.1653 0.665258 11.544 0.401977 12.0001C0.138697 12.4561 9.15527e-05 12.9734 9.15527e-05 13.5C9.15527e-05 14.0266 0.138697 14.5439 0.401977 14.9999C0.665258 15.456 1.04394 15.8347 1.49996 16.098V18.375C1.49996 19.469 1.93456 20.5182 2.70814 21.2918C3.48173 22.0654 4.53094 22.5 5.62496 22.5H18.375C19.469 22.5 20.5182 22.0654 21.2918 21.2918C22.0654 20.5182 22.5 19.469 22.5 18.375V16.098C22.956 15.8347 23.3347 15.456 23.5979 14.9999C23.8612 14.5439 23.9998 14.0266 23.9998 13.5C23.9998 12.9734 23.8612 12.4561 23.5979 12.0001C23.3347 11.544 22.956 11.1653 22.5 10.902V10.125C22.5 7.83751 21.5913 5.64371 19.9738 4.0262C18.3563 2.4087 16.1625 1.5 13.875 1.5H10.125ZM21 12.75H2.99996C2.80105 12.75 2.61028 12.829 2.46963 12.9697C2.32898 13.1103 2.24996 13.3011 2.24996 13.5C2.24996 13.6989 2.32898 13.8897 2.46963 14.0303C2.61028 14.171 2.80105 14.25 2.99996 14.25H21C21.1989 14.25 21.3896 14.171 21.5303 14.0303C21.6709 13.8897 21.75 13.6989 21.75 13.5C21.75 13.3011 21.6709 13.1103 21.5303 12.9697C21.3896 12.829 21.1989 12.75 21 12.75ZM20.25 10.5V10.125C20.25 8.43424 19.5783 6.81274 18.3828 5.61719C17.1872 4.42165 15.5657 3.75 13.875 3.75H10.125C8.4342 3.75 6.8127 4.42165 5.61715 5.61719C4.42161 6.81274 3.74996 8.43424 3.74996 10.125V10.5H20.25ZM16.5 16.5H20.25V18.375C20.25 19.41 19.41 20.25 18.375 20.25H5.62496C4.58996 20.25 3.74996 19.41 3.74996 18.375V16.5H13.5L15 18L16.5 16.5Z" fill="#855BFF"/>
</svg>
