<svg width="26" height="26" viewBox="0 0 26 26" fill="none" xmlns="http://www.w3.org/2000/svg">
<path d="M8.27734 14.7229L11.2773 17.7229L10.2227 18.7776L7.22266 15.7776L8.27734 14.7229ZM15.25 1.00023C16.1484 1.00023 17.0117 1.11352 17.8398 1.34008C18.668 1.56664 19.4453 1.89477 20.1719 2.32445C20.8984 2.75414 21.5547 3.26195 22.1406 3.84789C22.7266 4.43383 23.2344 5.09008 23.6641 5.81664C24.0938 6.5432 24.4219 7.32055 24.6484 8.14867C24.875 8.9768 24.9922 9.84398 25 10.7502C25 11.8909 24.8125 12.9807 24.4375 14.0198C24.0625 15.0588 23.5391 16.0002 22.8672 16.844C22.1953 17.6877 21.3906 18.4065 20.4531 19.0002C19.5156 19.594 18.4961 20.0159 17.3945 20.2659C17.4648 20.844 17.5 21.4221 17.5 22.0002C17.5 22.4143 17.4219 22.801 17.2656 23.1604C17.1094 23.5198 16.8945 23.8401 16.6211 24.1213C16.3477 24.4026 16.0312 24.6174 15.6719 24.7659C15.3125 24.9143 14.9219 24.9924 14.5 25.0002C13.2578 25.0002 12.0625 24.8401 10.9141 24.5198C9.76562 24.1995 8.6875 23.7463 7.67969 23.1604C6.67188 22.5745 5.76172 21.8713 4.94922 21.051C4.13672 20.2307 3.43359 19.3205 2.83984 18.3205C2.24609 17.3205 1.79297 16.2463 1.48047 15.0979C1.16797 13.9495 1.00781 12.7502 1 11.5002C1 11.0862 1.07813 10.6995 1.23438 10.3401C1.39062 9.9807 1.60547 9.66039 1.87891 9.37914C2.15234 9.09789 2.46875 8.88305 2.82812 8.73461C3.1875 8.58617 3.57812 8.50805 4 8.50023C4.57812 8.50023 5.15625 8.53539 5.73438 8.6057C5.98438 7.49633 6.40625 6.4768 7 5.54711C7.59375 4.61742 8.3125 3.81664 9.15625 3.14477C10 2.47289 10.9414 1.94555 11.9805 1.56273C13.0195 1.17992 14.1094 0.992422 15.25 1.00023ZM19.3984 7.6682C19.7734 7.94164 20.1836 8.14867 20.6289 8.2893C21.0742 8.42992 21.5312 8.50023 22 8.50023C22.3906 8.50023 22.7734 8.45336 23.1484 8.35961C22.9922 7.82836 22.7812 7.32055 22.5156 6.83617C22.25 6.3518 21.9414 5.89867 21.5898 5.4768L19.3984 7.6682ZM20.5234 4.41039C20.1016 4.05883 19.6484 3.75023 19.1641 3.48461C18.6797 3.21898 18.1719 3.00805 17.6406 2.8518C17.5469 3.2268 17.5 3.60961 17.5 4.00023C17.5 4.46898 17.5703 4.92602 17.7109 5.37133C17.8516 5.81664 18.0586 6.2268 18.332 6.6018L20.5234 4.41039ZM16.1758 2.55883C16.0195 2.53539 15.8672 2.51977 15.7188 2.51195C15.5703 2.50414 15.4141 2.50023 15.25 2.50023C14.2813 2.50023 13.3477 2.6643 12.4492 2.99242C11.5508 3.32055 10.7266 3.79711 9.97656 4.42211L15.25 9.69555L17.2656 7.67992C16.8516 7.15648 16.5391 6.58227 16.3281 5.95727C16.1172 5.33227 16.0078 4.67992 16 4.00023C16 3.50805 16.0586 3.02758 16.1758 2.55883ZM8.91016 5.4768C8.49609 5.96898 8.14453 6.50023 7.85547 7.07055C7.56641 7.64086 7.35156 8.24633 7.21094 8.88695C8.28125 9.13695 9.30859 9.52367 10.293 10.0471C11.2773 10.5705 12.1797 11.1995 13 11.9338L14.1953 10.7502L8.91016 5.4768ZM14.5 23.5002C14.7109 23.5002 14.9063 23.4612 15.0859 23.383C15.2656 23.3049 15.4219 23.1995 15.5547 23.0666C15.6875 22.9338 15.7969 22.7737 15.8828 22.5862C15.9688 22.3987 16.0078 22.2034 16 22.0002C16 20.8987 15.8594 19.8362 15.5781 18.8127C15.2969 17.7893 14.8906 16.8362 14.3594 15.9534C13.8281 15.0705 13.2031 14.262 12.4844 13.5276C11.7656 12.7932 10.957 12.1643 10.0586 11.6409C9.16016 11.1174 8.20312 10.7151 7.1875 10.4338C6.17188 10.1526 5.10937 10.008 4 10.0002C3.78906 10.0002 3.59375 10.0393 3.41406 10.1174C3.23438 10.1955 3.07812 10.301 2.94531 10.4338C2.8125 10.5666 2.70313 10.7268 2.61719 10.9143C2.53125 11.1018 2.49219 11.2971 2.5 11.5002C2.5 12.6018 2.64062 13.6643 2.92188 14.6877C3.20312 15.7112 3.60938 16.6643 4.14062 17.5471C4.67187 18.4299 5.29688 19.2385 6.01562 19.9729C6.73437 20.7073 7.54297 21.3362 8.44141 21.8596C9.33984 22.383 10.2969 22.7854 11.3125 23.0666C12.3281 23.3479 13.3906 23.4924 14.5 23.5002ZM14.0664 13.0002C14.8008 13.8205 15.4297 14.7229 15.9531 15.7073C16.4766 16.6916 16.8633 17.719 17.1133 18.7893C17.7461 18.6487 18.3477 18.4338 18.918 18.1448C19.4883 17.8557 20.0234 17.5041 20.5234 17.0901L15.25 11.8049L14.0664 13.0002ZM21.5781 16.0237C22.1953 15.2815 22.668 14.4612 22.9961 13.5627C23.3242 12.6643 23.4922 11.7268 23.5 10.7502C23.5 10.594 23.4961 10.4416 23.4883 10.2932C23.4805 10.1448 23.4648 9.98852 23.4414 9.82445C22.9727 9.94164 22.4922 10.0002 22 10.0002C21.3281 10.0002 20.6797 9.89477 20.0547 9.68383C19.4297 9.47289 18.8516 9.15648 18.3203 8.73461L16.3047 10.7502L21.5781 16.0237Z" fill="#8F69FF" stroke="#8A62FF" stroke-width="0.7"/>
</svg>
