<svg width="24" height="20" viewBox="0 0 24 20" fill="none" xmlns="http://www.w3.org/2000/svg">
<path d="M16.5167 0C17.1851 2.22683e-05 17.8403 0.182511 18.4089 0.527022C18.9775 0.871534 19.4371 1.36446 19.7361 1.95059L21.3956 5.20353C21.6884 5.08588 21.98 4.96706 22.2632 4.82941C22.548 4.68994 22.8777 4.66711 23.1797 4.76596C23.4817 4.8648 23.7312 5.07721 23.8735 5.35647C24.0158 5.63573 24.039 5.95895 23.9382 6.25504C23.8374 6.55113 23.6208 6.79582 23.3359 6.9353C22.7432 7.22471 22.472 7.31412 22.472 7.31412L23.6191 9.56471C23.8699 10.0553 23.9995 10.5953 23.9995 11.1435V14.1176C24.0002 14.6143 23.8937 15.1055 23.6869 15.5589C23.4801 16.0123 23.1777 16.4177 22.7996 16.7482V18.2353C22.7996 18.7033 22.6099 19.1522 22.2724 19.4831C21.9348 19.8141 21.477 20 20.9996 20C20.5223 20 20.0645 19.8141 19.7269 19.4831C19.3894 19.1522 19.1997 18.7033 19.1997 18.2353V17.6471H4.80044V18.2353C4.80044 18.7033 4.61081 19.1522 4.27326 19.4831C3.93571 19.8141 3.47789 20 3.00053 20C2.52316 20 2.06535 19.8141 1.7278 19.4831C1.39025 19.1522 1.20061 18.7033 1.20061 18.2353V16.7482C0.463851 16.1012 0.000673587 15.1624 0.000673587 14.1176V11.1435C0.000897831 10.5958 0.131127 10.0557 0.381055 9.56588L1.5282 7.31412C1.23756 7.19595 0.950268 7.07002 0.666641 6.93647C0.525203 6.86767 0.399003 6.77218 0.295276 6.65547C0.19155 6.53877 0.112334 6.40313 0.0621714 6.25635C0.0120085 6.10957 -0.0081158 5.95453 0.00295171 5.80011C0.0140192 5.64569 0.056061 5.49493 0.126667 5.35647C0.272064 5.07867 0.523052 4.86806 0.825453 4.77011C1.12785 4.67216 1.45741 4.69473 1.74299 4.83294C2.02497 4.96706 2.31416 5.08824 2.60455 5.20353L4.26406 1.95059C4.56307 1.36446 5.02263 0.871534 5.59124 0.527022C6.15986 0.182511 6.81508 2.22683e-05 7.48351 0H16.5167ZM20.2005 8.12235C18.1606 8.75412 15.2579 9.41177 12.0001 9.41177C8.74225 9.41177 5.83959 8.75294 3.79969 8.12235L2.52775 10.6165C2.44412 10.7801 2.40057 10.9605 2.40056 11.1435V14.1176C2.40056 14.4297 2.52698 14.7289 2.75201 14.9495C2.97704 15.1702 3.28225 15.2941 3.6005 15.2941H20.3997C20.7179 15.2941 21.0231 15.1702 21.2482 14.9495C21.4732 14.7289 21.5996 14.4297 21.5996 14.1176V11.1435C21.5994 10.9609 21.5559 10.7809 21.4724 10.6176L20.2005 8.12235ZM6.60035 10.5882C7.07772 10.5882 7.53553 10.7742 7.87308 11.1051C8.21063 11.4361 8.40026 11.8849 8.40026 12.3529C8.40026 12.821 8.21063 13.2698 7.87308 13.6008C7.53553 13.9317 7.07772 14.1176 6.60035 14.1176C6.12298 14.1176 5.66517 13.9317 5.32762 13.6008C4.99007 13.2698 4.80044 12.821 4.80044 12.3529C4.80044 11.8849 4.99007 11.4361 5.32762 11.1051C5.66517 10.7742 6.12298 10.5882 6.60035 10.5882ZM17.3998 10.5882C17.8772 10.5882 18.335 10.7742 18.6726 11.1051C19.0101 11.4361 19.1997 11.8849 19.1997 12.3529C19.1997 12.821 19.0101 13.2698 18.6726 13.6008C18.335 13.9317 17.8772 14.1176 17.3998 14.1176C16.9225 14.1176 16.4646 13.9317 16.1271 13.6008C15.7895 13.2698 15.5999 12.821 15.5999 12.3529C15.5999 11.8849 15.7895 11.4361 16.1271 11.1051C16.4646 10.7742 16.9225 10.5882 17.3998 10.5882ZM16.5167 2.35294H7.48351C7.26072 2.35306 7.04237 2.41398 6.85291 2.52889C6.66344 2.64379 6.51034 2.80814 6.41076 3.00353L4.88683 5.98824C6.74434 6.53529 9.24742 7.05882 12.0001 7.05882C14.7528 7.05882 17.2558 6.53529 19.1121 5.98824L17.5894 3.00353C17.4898 2.80814 17.3367 2.64379 17.1473 2.52889C16.9578 2.41398 16.7394 2.35306 16.5167 2.35294Z" fill="#855BFF"/>
</svg>
