<svg width="20" height="24" viewBox="0 0 20 24" fill="none" xmlns="http://www.w3.org/2000/svg">
<path fill-rule="evenodd" clip-rule="evenodd" d="M6.4625 1.31567e-07C6.69432 -0.00010406 6.92159 0.0616779 7.11894 0.178442C7.31628 0.295206 7.47592 0.462352 7.58 0.6612L7.6425 0.8004C7.80951 1.2536 8.11437 1.64825 8.51763 1.93325C8.92089 2.21826 9.40397 2.3805 9.90436 2.39899C10.4047 2.41748 10.8994 2.29135 11.3243 2.03694C11.7492 1.78252 12.0847 1.41154 12.2875 0.972L12.3575 0.8004C12.4346 0.590288 12.571 0.404915 12.7516 0.265037C12.9322 0.125159 13.1498 0.0362971 13.38 0.00840009L13.5363 1.31567e-07H13.75C15.3606 8.94625e-05 16.909 0.59705 18.0722 1.66639C19.2355 2.73573 19.9239 4.1949 19.9938 5.7396L20 6V6.6C20 7.04746 19.8264 7.47887 19.513 7.8101C19.1996 8.14134 18.7689 8.34864 18.305 8.3916L18.125 8.4H15V9.5376C15.0001 10.0127 15.1472 10.4772 15.4225 10.872L15.5475 11.0364L18.0825 14.0784C19.2442 15.4722 19.9132 17.185 19.9925 18.9684L20 19.326V20.4C20.0001 21.3183 19.6346 22.2018 18.9784 22.8699C18.3222 23.538 17.4249 23.9401 16.47 23.994L16.25 24H3.75C2.79349 24.0001 1.87311 23.6492 1.17717 23.0193C0.481241 22.3893 0.0623656 21.5279 0.00625016 20.6112L1.48917e-08 20.4V19.326C-0.00010845 17.5407 0.59229 15.8018 1.69125 14.3616L1.91625 14.0784L4.4525 11.0364C4.76138 10.665 4.94845 10.214 4.99 9.7404L5 9.5364V8.4H1.875C1.4089 8.39998 0.959511 8.2333 0.614476 7.93246C0.269441 7.63162 0.0534959 7.21819 0.00874998 6.7728L1.48917e-08 6.6V6C9.3068e-05 4.45384 0.621927 2.96741 1.73582 1.85067C2.84972 0.733928 4.36969 0.0731034 5.97875 0.00600027L6.25 1.31567e-07H6.4625ZM13.2088 12H6.79125C6.6749 12.1866 6.54543 12.3655 6.40375 12.5352L3.87 15.5772C2.98314 16.6412 2.49997 17.9633 2.5 19.326V20.4C2.5 20.7183 2.6317 21.0235 2.86612 21.2485C3.10054 21.4736 3.41848 21.6 3.75 21.6H16.25C16.5815 21.6 16.8995 21.4736 17.1339 21.2485C17.3683 21.0235 17.5 20.7183 17.5 20.4V19.326C17.5 17.9633 17.0169 16.6412 16.13 15.5772L13.5962 12.5352C13.4546 12.3654 13.3251 12.1866 13.2088 12ZM14.3062 2.4396C13.8645 3.15881 13.2349 3.75488 12.4797 4.16886C11.7244 4.58284 10.8697 4.80039 10 4.8C8.165 4.8 6.5625 3.852 5.69375 2.4396C4.84353 2.56216 4.06297 2.96136 3.48272 3.57039C2.90246 4.17943 2.55774 4.96132 2.50625 5.7852L2.5 6H5C5.63072 5.99981 6.23821 6.22849 6.70069 6.6402C7.16316 7.0519 7.44645 7.61621 7.49375 8.22L7.5 8.4V9.6H12.5V8.4C12.4998 7.79451 12.738 7.21132 13.1669 6.76734C13.5957 6.32336 14.1836 6.05141 14.8125 6.006L15 6H17.5C17.5001 5.13771 17.1777 4.30405 16.5916 3.65065C16.0055 2.99724 15.1945 2.56751 14.3062 2.4396Z" fill="#855BFF"/>
</svg>
