<svg width="28" height="28" viewBox="0 0 28 28" fill="none" xmlns="http://www.w3.org/2000/svg">
<path d="M11.3443 4.96148C11.3443 3.11389 9.38127 1.64779 6.98758 2.07446C3.47358 2.69918 1.86783 10.0576 2.00849 11.3788C2.10807 12.3133 4.15572 13.6677 6.55937 12.708C8.12903 12.0807 8.99913 10.7807 9.47712 9.38504M16.6557 4.96148C16.6557 3.11389 18.6187 1.64779 21.0124 2.07446C24.5264 2.69918 26.1322 10.0576 25.9915 11.3788C25.8919 12.3133 23.8443 13.6677 21.4406 12.708C19.871 12.0807 19.1316 10.7807 18.6536 9.38504M8.85473 16.6956V17.3602M18.8129 16.6956V17.3602M12.9002 19.6863H14.7674L13.8338 20.6832L12.9002 19.6863Z" stroke="#906AFF" stroke-width="2.5" stroke-linecap="round" stroke-linejoin="round"/>
<path d="M4.39845 13.0364C4.05071 14.473 3.87504 15.9509 3.87564 17.4347C3.87564 22.9802 8.33442 26.0001 13.8338 26.0001C19.3332 26.0001 23.792 22.9802 23.792 17.4347C23.792 16.0245 23.5903 14.5105 23.1783 13.0364M11.6729 4.95226C12.3849 4.80463 13.1086 4.73118 13.8338 4.73294C14.8047 4.73294 15.701 4.87649 16.5238 5.13968" stroke="#906AFF" stroke-width="2.5" stroke-linecap="round" stroke-linejoin="round"/>
</svg>
